# xmcd
#
# Track frame offsets:
#	150
#	17045
#	38997
#	59709
#	78657
#	101493
#	121595
#	144563
#	166080
#	186270
#	203699
#	224213
#	240720
#	257257
#	286828
#	302503
#
# Disc length: 4305 seconds
#
# Revision: 1
# Processed by: cddbd v1.5.2PL0 Copyright (c) Steve Scherf et al.
# Submitted via: audiograbber 1.83.01
#
DISCID=e010cf10
DTITLE=Eagles - Greatest Hits
DYEAR=1900
DGENRE=karaoke
TTITLE0=Eagles - Desperado
TTITLE1=Eagles - Hotel California
TTITLE2=Eagles - One of These Nights
TTITLE3=Eagles - Victim Of Love
TTITLE4=Eagles - I Can't Tell you Why
TTITLE5=Eagles - Peaceful Easy Feeling
TTITLE6=Eagles - New Kid In Town
TTITLE7=Eagles - Take It To The Limit
TTITLE8=Eagles - Witchy Woman
TTITLE9=Eagles - The Long Run
TTITLE10=Eagles - Heartache Tonight
TTITLE11=Eagles - Take It Easy
TTITLE12=Eagles - Get Over It
TTITLE13=Eagles - Lying Eyes
TTITLE14=Eagles - James Dean
TTITLE15=Eagles - Best Of My Love
EXTD=
EXTT0=
EXTT1=
EXTT2=
EXTT3=
EXTT4=
EXTT5=
EXTT6=
EXTT7=
EXTT8=
EXTT9=
EXTT10=
EXTT11=
EXTT12=
EXTT13=
EXTT14=
EXTT15=
PLAYORDER=
